<svg xmlns="http://www.w3.org/2000/svg" xmlns:xlink="http://www.w3.org/1999/xlink" version="1.1" width="256" height="256" viewBox="0 0 256 256" xml:space="preserve">

<defs>
</defs>
<g style="stroke: none; stroke-width: 0; stroke-dasharray: none; stroke-linecap: butt; stroke-linejoin: miter; stroke-miterlimit: 10; fill: none; fill-rule: nonzero; opacity: 1;" transform="translate(1.4065934065934016 1.4065934065934016) scale(2.81 2.81)" >
	<path d="M 20.378 90 c -0.144 0 -0.288 -0.031 -0.423 -0.094 c -0.352 -0.165 -0.577 -0.518 -0.577 -0.906 V 71.019 h -6.466 c -4.53 0 -8.215 -3.685 -8.215 -8.214 V 8.215 C 4.698 3.685 8.383 0 12.913 0 h 64.175 c 4.529 0 8.214 3.685 8.214 8.215 v 54.59 c 0 4.529 -3.685 8.214 -8.214 8.214 H 43.422 L 21.02 89.767 C 20.837 89.921 20.608 90 20.378 90 z M 12.913 2 C 9.486 2 6.698 4.788 6.698 8.215 v 54.59 c 0 3.427 2.788 6.214 6.215 6.214 h 7.466 c 0.552 0 1 0.447 1 1 v 16.841 l 21.039 -17.607 c 0.18 -0.15 0.407 -0.233 0.642 -0.233 h 34.029 c 3.427 0 6.214 -2.787 6.214 -6.214 V 8.215 C 83.302 4.788 80.515 2 77.088 2 H 12.913 z" style="stroke: none; stroke-width: 1; stroke-dasharray: none; stroke-linecap: butt; stroke-linejoin: miter; stroke-miterlimit: 10; fill: rgb(0,0,0); fill-rule: nonzero; opacity: 1;" transform=" matrix(1 0 0 1 0 0) " stroke-linecap="round" />
	<path d="M 48.617 60.956 c -0.115 0 -0.23 -0.005 -0.347 -0.014 l 0 0 C 31.415 59.624 17.71 45.918 16.391 29.063 c -0.157 -2.011 1.063 -3.856 2.967 -4.489 L 64.981 9.416 c 0.84 -0.278 1.75 -0.063 2.375 0.562 s 0.84 1.535 0.561 2.374 L 52.759 57.976 C 52.163 59.769 50.49 60.956 48.617 60.956 z M 48.427 58.948 c 1.08 0.085 2.093 -0.574 2.434 -1.604 L 66.019 11.72 c 0.055 -0.164 -0.024 -0.276 -0.077 -0.328 c -0.053 -0.053 -0.166 -0.135 -0.329 -0.078 L 19.989 26.473 c -1.03 0.342 -1.689 1.343 -1.604 2.434 C 19.628 44.791 32.543 57.706 48.427 58.948 L 48.427 58.948 z" style="stroke: none; stroke-width: 1; stroke-dasharray: none; stroke-linecap: butt; stroke-linejoin: miter; stroke-miterlimit: 10; fill: rgb(0,0,0); fill-rule: nonzero; opacity: 1;" transform=" matrix(1 0 0 1 0 0) " stroke-linecap="round" />
	<path d="M 50.018 38.375 c -1.551 0 -3.102 -0.59 -4.281 -1.771 c -2.36 -2.36 -2.36 -6.201 0 -8.561 c 2.358 -2.36 6.201 -2.361 8.562 0 c 1.144 1.144 1.773 2.664 1.773 4.28 c 0 1.617 -0.63 3.137 -1.773 4.281 C 53.118 37.785 51.567 38.375 50.018 38.375 z M 50.017 28.272 c -1.038 0 -2.076 0.396 -2.866 1.186 c -1.581 1.581 -1.581 4.152 0 5.733 c 1.58 1.581 4.153 1.58 5.733 0 c 1.58 -1.581 1.58 -4.152 0 -5.733 C 52.094 28.668 51.056 28.272 50.017 28.272 z" style="stroke: none; stroke-width: 1; stroke-dasharray: none; stroke-linecap: butt; stroke-linejoin: miter; stroke-miterlimit: 10; fill: rgb(0,0,0); fill-rule: nonzero; opacity: 1;" transform=" matrix(1 0 0 1 0 0) " stroke-linecap="round" />
	<path d="M 58.122 13.071 c -0.277 -0.278 -0.589 -0.518 -0.925 -0.714 c -0.476 -0.277 -1.089 -0.116 -1.368 0.36 c -0.277 0.477 -0.116 1.089 0.36 1.368 c 0.188 0.11 0.362 0.244 0.519 0.4 c 0.483 0.483 0.749 1.125 0.749 1.809 s -0.266 1.325 -0.749 1.809 c -0.998 0.997 -2.619 0.996 -3.617 0 c -0.729 -0.729 -0.949 -1.817 -0.562 -2.771 c 0.208 -0.512 -0.039 -1.095 -0.551 -1.303 c -0.51 -0.207 -1.095 0.038 -1.303 0.551 c -0.69 1.701 -0.298 3.639 1.001 4.938 c 0.889 0.888 2.056 1.333 3.223 1.333 s 2.334 -0.444 3.223 -1.333 c 0.861 -0.861 1.335 -2.005 1.335 -3.223 C 59.457 15.076 58.983 13.931 58.122 13.071 z" style="stroke: none; stroke-width: 1; stroke-dasharray: none; stroke-linecap: butt; stroke-linejoin: miter; stroke-miterlimit: 10; fill: rgb(0,0,0); fill-rule: nonzero; opacity: 1;" transform=" matrix(1 0 0 1 0 0) " stroke-linecap="round" />
	<path d="M 53.391 51.902 c -1.082 0 -2.156 -0.07 -3.221 -0.195 c 0.872 -2.755 0.17 -5.793 -1.933 -7.897 c -1.481 -1.481 -3.45 -2.297 -5.545 -2.297 c -2.095 0 -4.064 0.816 -5.546 2.297 c -0.542 0.543 -0.991 1.171 -1.353 1.843 c -0.845 -0.684 -1.658 -1.413 -2.423 -2.198 l 3.289 -3.289 c 0.979 -0.979 1.152 -2.491 0.413 -3.597 c -0.473 -0.707 -1.227 -1.16 -2.068 -1.242 c -0.641 -0.06 -1.269 0.091 -1.796 0.43 c -0.216 -0.428 -0.542 -0.799 -0.954 -1.075 c -1.106 -0.74 -2.619 -0.566 -3.597 0.413 l -0.624 0.624 c -1.705 -3.671 -2.601 -7.714 -2.601 -11.776 c 0 -0.321 -0.154 -0.623 -0.415 -0.811 s -0.596 -0.24 -0.9 -0.138 l -4.758 1.581 c -1.904 0.632 -3.124 2.478 -2.967 4.489 c 1.319 16.855 15.024 30.561 31.879 31.879 c 0.116 0.009 0.231 0.014 0.347 0.014 c 1.873 0 3.546 -1.188 4.142 -2.98 l 1.581 -4.758 c 0.101 -0.305 0.05 -0.64 -0.139 -0.9 C 54.014 52.057 53.712 51.902 53.391 51.902 z M 38.56 45.225 c 1.104 -1.104 2.571 -1.711 4.131 -1.711 s 3.028 0.608 4.131 1.711 c 1.641 1.642 2.13 4.046 1.33 6.173 c -3.86 -0.74 -7.526 -2.286 -10.748 -4.53 C 37.689 46.261 38.075 45.71 38.56 45.225 z M 50.86 57.345 c -0.341 1.029 -1.337 1.688 -2.434 1.604 c -15.884 -1.242 -28.799 -14.158 -30.042 -30.042 c -0.085 -1.091 0.574 -2.092 1.604 -2.434 l 3.474 -1.154 c 0.203 4.375 1.37 8.69 3.407 12.558 c 0.148 0.281 0.421 0.475 0.735 0.523 c 0.316 0.047 0.632 -0.057 0.857 -0.282 l 1.608 -1.608 c 0.302 -0.3 0.762 -0.372 1.071 -0.164 c 0.284 0.189 0.35 0.457 0.364 0.6 c 0.024 0.245 -0.061 0.484 -0.232 0.656 c -0.39 0.391 -0.39 1.024 0 1.414 c 0.391 0.391 1.023 0.391 1.414 0 l 1.466 -1.465 c 0.171 -0.17 0.411 -0.254 0.654 -0.231 c 0.143 0.014 0.411 0.08 0.601 0.364 c 0.207 0.31 0.136 0.77 -0.165 1.071 l -3.976 3.976 c -0.378 0.377 -0.392 0.985 -0.032 1.38 c 1.306 1.435 2.742 2.725 4.279 3.867 c 0.015 0.014 0.032 0.024 0.048 0.037 c 4.757 3.518 10.49 5.582 16.452 5.858 L 50.86 57.345 z" style="stroke: none; stroke-width: 1; stroke-dasharray: none; stroke-linecap: butt; stroke-linejoin: miter; stroke-miterlimit: 10; fill: rgb(0,0,0); fill-rule: nonzero; opacity: 1;" transform=" matrix(1 0 0 1 0 0) " stroke-linecap="round" />
	<path d="M 38.233 32.235 c -0.277 0 -0.552 -0.067 -0.804 -0.199 l -2.916 -1.527 c -0.411 -0.214 -0.713 -0.576 -0.852 -1.019 c -0.139 -0.443 -0.097 -0.914 0.119 -1.325 l 1.527 -2.916 c 0.214 -0.411 0.576 -0.713 1.019 -0.852 c 0.443 -0.139 0.914 -0.097 1.325 0.119 l 2.916 1.527 c 0.411 0.214 0.713 0.576 0.852 1.019 c 0.139 0.443 0.097 0.914 -0.119 1.325 l -1.527 2.916 c -0.214 0.411 -0.576 0.713 -1.019 0.852 C 38.583 32.209 38.407 32.235 38.233 32.235 z M 35.673 28.86 l 2.45 1.283 l 1.283 -2.45 l -2.45 -1.283 L 35.673 28.86 z M 39.64 27.815 h 0.01 H 39.64 z M 36.723 26.288 C 36.723 26.288 36.723 26.288 36.723 26.288 L 36.723 26.288 L 36.723 26.288 z" style="stroke: none; stroke-width: 1; stroke-dasharray: none; stroke-linecap: butt; stroke-linejoin: miter; stroke-miterlimit: 10; fill: rgb(0,0,0); fill-rule: nonzero; opacity: 1;" transform=" matrix(1 0 0 1 0 0) " stroke-linecap="round" />
</g>
</svg>